<?xml version="1.0" standalone="no"?>
<!DOCTYPE svg PUBLIC "-//W3C//DTD SVG 20010904//EN"
 "http://www.w3.org/TR/2001/REC-SVG-20010904/DTD/svg10.dtd">
<svg version="1.0" xmlns="http://www.w3.org/2000/svg"
 width="229.000000pt" height="220.000000pt" viewBox="0 0 229.000000 220.000000"
 preserveAspectRatio="xMidYMid meet">

<g transform="translate(0.000000,220.000000) scale(0.100000,-0.100000)"
fill="#ffffff" stroke="none">
<path d="M1785 2185 c-98 -21 -182 -53 -321 -121 l-131 -63 -95 0 c-146 0
-305 -45 -506 -144 -177 -87 -272 -196 -272 -312 0 -29 5 -66 11 -84 11 -30 9
-33 -81 -129 -351 -370 -473 -645 -325 -729 32 -18 55 -23 120 -23 151 0 328
53 546 162 131 65 141 69 173 58 45 -15 121 -70 110 -80 -5 -4 -69 -19 -142
-34 -166 -33 -262 -79 -312 -150 -8 -12 8 -2 35 21 68 57 106 71 270 99 77 13
150 26 161 30 15 4 32 -3 55 -24 67 -58 97 -64 167 -32 80 36 248 219 287 313
8 20 15 51 14 69 0 27 -4 22 -18 -29 -23 -79 -54 -125 -161 -236 -101 -106
-126 -121 -193 -114 -44 4 -55 10 -115 70 -37 37 -91 79 -121 96 l-54 29 31
16 c25 13 36 14 50 5 12 -8 30 -9 48 -4 l29 8 -25 6 c-14 4 -25 12 -25 18 0 6
48 45 106 86 113 78 259 194 373 296 38 33 72 59 76 56 4 -3 10 4 13 15 3 13
10 18 21 14 12 -4 16 0 16 15 0 12 5 21 11 21 7 0 8 -29 4 -92 -6 -76 -11 -96
-27 -111 -20 -17 -20 -17 14 -55 25 -28 40 -58 53 -108 35 -138 57 -195 99
-252 58 -78 141 -150 233 -202 43 -23 115 -64 161 -89 45 -25 96 -59 112 -75
17 -15 30 -24 30 -19 0 24 -82 87 -174 134 -314 161 -426 310 -426 565 0 49
-5 151 -12 226 l-12 136 55 64 c162 184 284 385 308 507 21 103 -15 163 -108
181 -63 12 -60 12 -136 -5z m-315 -411 c0 -10 -68 -103 -118 -161 -61 -73
-189 -179 -302 -252 -159 -103 -383 -210 -415 -197 -35 13 -10 33 88 70 144
54 255 107 323 154 62 42 111 88 102 97 -2 3 -41 -17 -86 -44 -102 -61 -230
-115 -347 -147 -109 -29 -125 -30 -125 -5 0 15 25 26 129 60 70 23 179 68 242
99 120 60 333 198 434 281 58 48 75 58 75 45z"/>
<path d="M1567 1284 c-4 -4 -7 -14 -7 -23 0 -11 3 -12 11 -4 6 6 10 16 7 23
-2 6 -7 8 -11 4z"/>
<path d="M1055 890 c-3 -5 -2 -10 4 -10 5 0 13 5 16 10 3 6 2 10 -4 10 -5 0
-13 -4 -16 -10z"/>
<path d="M1070 817 c-57 -28 -60 -55 -8 -80 36 -18 38 -18 76 2 36 18 62 58
62 92 0 17 -86 7 -130 -14z m60 -1 c-13 -17 -79 -41 -87 -32 -3 3 14 14 38 25
54 24 65 25 49 7z m40 -26 c0 -28 -67 -61 -97 -47 -13 5 -23 14 -23 19 0 4 10
8 23 8 12 0 36 9 52 20 38 25 45 25 45 0z"/>
<path d="M1505 560 c-39 -5 -43 -7 -17 -8 27 -2 32 -5 28 -19 -3 -10 -10 -39
-17 -65 -11 -47 -21 -58 -34 -38 -17 28 -100 3 -143 -43 -28 -29 -33 -91 -10
-113 24 -24 84 -29 114 -9 19 12 29 14 37 6 21 -21 74 -13 96 16 12 14 18 29
15 32 -4 3 -8 2 -11 -4 -9 -24 -22 -37 -31 -31 -6 4 3 55 24 138 18 73 34 136
34 141 0 8 -9 7 -85 -3z m-40 -146 c17 -17 15 -41 -7 -97 -14 -37 -65 -64 -83
-45 -11 10 -10 23 1 68 22 82 54 109 89 74z"/>
<path d="M920 504 c-9 -3 -42 -52 -73 -109 -32 -58 -62 -107 -66 -109 -4 -3
-15 37 -25 88 -10 50 -21 98 -25 105 -6 9 -23 10 -62 5 -30 -5 -47 -10 -38
-11 15 -4 15 -11 3 -76 -19 -97 -16 -109 5 -22 l17 70 20 -120 c19 -116 20
-120 45 -123 24 -3 32 8 94 118 37 67 69 119 71 117 9 -8 -37 -211 -49 -219
-14 -9 68 -10 101 -1 13 3 19 9 14 12 -13 8 35 263 51 273 12 8 -56 9 -83 2z"/>
<path d="M1965 505 c-5 -2 -23 -6 -38 -9 -35 -8 -54 -45 -38 -75 7 -12 32 -31
56 -42 46 -22 60 -51 29 -63 -31 -12 -45 -6 -56 25 -13 37 -51 38 -56 2 -4
-30 37 -47 96 -40 56 6 84 31 80 71 -2 26 -12 36 -53 58 -56 30 -64 51 -22 56
18 2 27 -1 27 -11 0 -8 7 -20 16 -27 12 -11 18 -10 32 3 14 15 14 19 2 31 -16
14 -58 26 -75 21z"/>
<path d="M1670 473 c-31 -11 -80 -68 -86 -100 -13 -68 52 -111 118 -79 21 11
35 13 42 6 16 -16 72 -12 89 8 24 26 21 39 -3 17 -31 -28 -35 -11 -17 68 10
39 17 75 17 80 0 11 -58 9 -65 -3 -4 -7 -12 -7 -25 0 -20 11 -46 12 -70 3z
m76 -28 c8 -21 -14 -106 -33 -127 -18 -21 -63 -24 -63 -5 0 16 18 85 32 120
12 30 54 38 64 12z"/>
<path d="M1105 418 c-116 -64 -106 -188 15 -188 107 0 185 123 114 179 -30 23
-95 28 -129 9z m88 -12 c6 -16 2 -39 -20 -109 -11 -36 -21 -49 -40 -53 -40
-10 -49 8 -35 72 6 31 18 67 27 80 17 27 60 32 68 10z"/>
<path d="M607 263 c-4 -26 -16 -48 -29 -57 -22 -15 -21 -16 27 -16 41 0 46 2
32 13 -10 7 -17 30 -19 57 l-3 45 -8 -42z"/>
<path d="M1947 214 c-4 -4 -7 -49 -7 -101 0 -76 3 -93 15 -93 11 0 15 11 15
36 0 28 3 35 15 30 8 -3 22 -9 30 -12 18 -7 65 39 65 65 0 59 -44 95 -88 72
-12 -6 -22 -7 -29 0 -5 5 -12 6 -16 3z m88 -69 c0 -36 -3 -40 -25 -40 -18 0
-27 7 -34 27 -12 33 7 60 38 56 17 -2 21 -10 21 -43z"/>
<path d="M1792 194 c-27 -18 -31 -84 -6 -108 37 -37 124 -6 124 45 0 23 -18
60 -34 71 -19 13 -60 9 -84 -8z m66 -16 c7 -7 12 -27 12 -44 0 -24 -5 -34 -20
-39 -43 -14 -68 45 -34 79 19 19 26 20 42 4z"/>
<path d="M1604 185 c-11 -27 7 -186 19 -182 7 2 13 18 15 35 3 29 5 31 33 25
42 -8 69 19 69 68 0 21 -7 45 -16 53 -18 19 -65 21 -82 4 -9 -9 -12 -9 -12 0
0 17 -20 15 -26 -3z m96 -26 c23 -42 -13 -95 -46 -68 -17 14 -18 61 -2 77 18
18 36 15 48 -9z"/>
</g>
</svg>
